PathFileType	4	(X/Y/Z)	..\data\2015007\dynamic\2015007_C5_03.trc
DataRate	CameraRate	NumFrames	NumMarkers	Units	OrigDataRate	OrigDataStartFrame	OrigNumFrames
100.000000	100.000000	4	52	mm	100.000000	0	139
Frame#	Time	L_IAS			L_IPS			R_IPS			R_IAS			L_FTC			L_FLE			L_FME			L_FAX			L_TTC			L_FAL			L_TAM			L_FCC			L_FM1			L_FM2			L_FM5			R_FTC			R_FLE			R_FME			R_FAX			R_TTC			R_FAL			R_TAM			R_FCC			R_FM1			R_FM2			R_FM5			CV7			TV10			SXS			SJN			L_SIA			L_SRS			L_SAA			L_SAE			L_HLE			L_HME			L_UOA			L_RSP			L_UHE			L_HM2			L_HM5			R_SIA			R_SRS			R_SAA			R_SAE			R_HLE			R_HME			R_UOA			R_RSP			R_UHE			R_HM2			R_HM5			
		X1	Y1	Z1	X2	Y2	Z2	X3	Y3	Z3	X4	Y4	Z4	X5	Y5	Z5	X6	Y6	Z6	X7	Y7	Z7	X8	Y8	Z8	X9	Y9	Z9	X10	Y10	Z10	X11	Y11	Z11	X12	Y12	Z12	X13	Y13	Z13	X14	Y14	Z14	X15	Y15	Z15	X16	Y16	Z16	X17	Y17	Z17	X18	Y18	Z18	X19	Y19	Z19	X20	Y20	Z20	X21	Y21	Z21	X22	Y22	Z22	X23	Y23	Z23	X24	Y24	Z24	X25	Y25	Z25	X26	Y26	Z26	X27	Y27	Z27	X28	Y28	Z28	X29	Y29	Z29	X30	Y30	Z30	X31	Y31	Z31	X32	Y32	Z32	X33	Y33	Z33	X34	Y34	Z34	X35	Y35	Z35	X36	Y36	Z36	X37	Y37	Z37	X38	Y38	Z38	X39	Y39	Z39	X40	Y40	Z40	X41	Y41	Z41	X42	Y42	Z42	X43	Y43	Z43	X44	Y44	Z44	X45	Y45	Z45	X46	Y46	Z46	X47	Y47	Z47	X48	Y48	Z48	X49	Y49	Z49	X50	Y50	Z50	X51	Y51	Z51	X52	Y52	Z52	

1	0	-230.6461944580079	886.948669433594	-383.1832580566407	-439.0011596679689	903.893493652344	-286.7004699707032	-424.219451904297	900.4722290039065	-184.4570007324219	-204.6507263183594	888.5559082031252	-132.5263061523438	-336.1740722656251	795.480163574219	-434.3628540039064	-411.7597656250001	430.1774902343751	-368.1397399902344	-417.0596618652345	420.6150207519532	-245.4252624511719	-444.0086059570314	378.5944824218751	-373.6190490722657	-395.9241943359376	355.5805358886719	-321.3005065917969	-558.0517578125001	74.21798706054689	-320.3705444335938	-535.1215209960939	78.18624114990236	-239.0454711914063	-610.8746337890626	34.5702133178711	-268.5773010253907	-431.6335449218751	17.89021492004395	-267.3058166503907	-431.1553039550782	28.17506790161134	-318.9869995117188	-490.5410156250001	13.56676578521729	-354.3667907714844	-285.4494323730469	784.9476318359377	-62.8859100341797	-125.8942184448242	445.1705627441407	-114.0169830322266	-128.7020874023438	421.7036132812501	-242.7153930664063	-118.8482818603516	392.7211914062501	-106.7188720703125	-63.82910156250001	403.2508239746095	-150.6448516845703	-3.804478645324708	78.77041625976564	-127.621078491211	26.00265312194825	105.5431671142578	-201.7250671386719	-12.1681022644043	17.30095481872559	-187.9412231445313	144.2510833740235	92.8225784301758	-175.0858612060547	131.825180053711	95.23353576660158	-135.4200744628907	96.29980468750003	51.71182250976564	-92.26927947998048	-324.0718383789063	1391.60400390625	-231.0467529296876	-428.5104064941407	1155.345458984375	-257.8153991699219	-159.8441772460938	1058.48876953125	-253.0273437500001	-211.9834594726563	1308.511352539063	-240.184066772461	-423.4455871582032	1204.515502929688	-341.4058532714844	-379.2655944824219	1331.304931640625	-344.3023986816407	-333.5120544433594	1336.170043945313	-404.3176269531251	-285.3641967773438	1347.124755859375	-416.2810363769532	-296.1186218261719	1040.806396484375	-511.7095642089845	-327.0480041503907	1024.36279296875	-441.2456970214845	-322.0406494140626	1007.903747558594	-489.9199523925782	-141.6530151367188	855.8608398437502	-482.4889526367189	-203.7905578613282	825.9512939453127	-522.1699218750001	-95.28073120117189	810.827819824219	-494.5991821289064	-177.935043334961	768.6867675781252	-523.8047485351564	-430.998016357422	1195.182739257813	-175.3324127197266	-385.9504699707032	1317.74267578125	-165.917465209961	-336.1634826660157	1318.165893554688	-92.02494049072267	-289.4825744628907	1319.576171875	-73.92209625244142	-347.1363830566407	1007.918518066406	1.967965483665467	-374.6784362792969	996.0755004882815	-64.38648223876955	-373.7824401855469	980.3691406250002	-17.98127174377442	-291.1000061035157	784.432312011719	19.27876472473145	-343.1976623535157	793.926452636719	52.75524139404298	-276.6617126464844	703.1127319335939	35.00203323364259	-350.4201354980469	727.1145019531251	70.85177612304689	
2	0.01	-215.1895294189454	884.3142089843752	-383.5164184570313	-422.997039794922	901.352233886719	-284.9046630859376	-407.5196533203126	897.7437744140627	-182.9759216308594	-187.7708587646485	885.4144287109377	-132.2993927001953	-321.7449340820313	793.385437011719	-433.202117919922	-398.7374877929689	428.3216247558595	-367.7322082519532	-403.7969360351564	418.8777160644532	-244.9422149658204	-432.3329467773439	377.4373779296876	-373.0192260742188	-384.8235473632814	352.9048767089844	-320.8382263183594	-556.5957641601564	77.04141998291017	-321.1352539062501	-534.1665039062501	80.39651489257814	-239.7888183593751	-610.8756103515626	39.11713027954102	-269.4739074707032	-432.0758056640626	17.66585922241211	-267.2326049804688	-431.6683044433595	27.82294082641602	-318.9320983886719	-490.9935913085939	13.30609703063965	-354.3624877929688	-268.0655212402344	782.1216430664065	-62.32631301879884	-108.4046630859375	443.4147033691407	-113.9923400878907	-112.0913009643555	419.5507812500001	-242.7079162597657	-100.84033203125	391.1104125976564	-106.7096099853516	-46.05884170532227	402.1482849121095	-151.1318054199219	17.5109920501709	78.59075927734376	-127.7939758300782	46.44041442871094	105.4286575317383	-202.2427215576172	8.724977493286135	17.33443450927735	-187.897201538086	165.2619171142578	92.9380569458008	-176.7314605712891	153.2572937011719	95.14005279541017	-136.9509735107422	118.1589584350586	51.66468429565431	-93.64257049560548	-308.0884399414063	1389.039428710938	-230.0418243408204	-412.311981201172	1152.775268554688	-256.7380371093751	-143.3847961425782	1055.160278320313	-252.5260467529297	-195.6859741210938	1306.008178710938	-239.197006225586	-407.4816894531251	1202.15478515625	-340.4269714355469	-362.9429016113282	1328.849975585938	-343.3989257812501	-317.0365295410157	1333.66455078125	-403.3402709960939	-268.8496093750001	1344.624877929688	-415.2873840332032	-278.1957702636719	1038.627685546875	-511.2783813476564	-308.9539794921876	1021.601257324219	-440.814422607422	-303.8459167480469	1005.3515625	-489.5156250000001	-121.4389572143555	855.9014892578127	-481.8820190429689	-183.1029205322266	824.6946411132815	-521.4068603515626	-74.18975067138673	812.0156860351565	-494.1258850097657	-155.9552001953125	767.8232421875001	-522.8142089843751	-414.8382263183595	1192.5	-174.3303375244141	-369.9624633789063	1315.144653320313	-164.8883361816407	-320.0810852050782	1315.568725585938	-90.94810485839845	-273.3150634765626	1316.986694335938	-72.89220428466798	-331.9796752929688	1005.415649414063	2.858586788177491	-359.5103454589844	993.4812622070315	-63.47163391113283	-358.7315979003907	978.0657348632815	-17.19372177124024	-276.9256591796876	781.7762451171877	20.69030380249024	-329.2448425292969	791.525573730469	54.00231933593751	-263.2076416015626	700.6020507812501	36.93628692626954	-336.9279785156251	724.8538208007814	72.20828247070314	
3	0.02	-199.5322265625001	882.1591796875002	-383.6863403320313	-406.761932373047	899.1180419921877	-283.1580810546876	-390.6902770996095	895.4692993164065	-181.5383605957032	-170.8534698486328	882.868835449219	-132.0203094482422	-306.8669738769532	791.258972167969	-431.9079589843751	-384.3023071289064	426.2646789550782	-367.4216918945313	-389.3355102539064	416.8316955566407	-244.5510864257813	-419.3318176269532	376.1687316894532	-372.5274658203126	-372.4921264648438	350.0006713867188	-320.4857177734376	-554.5140380859376	80.62738037109376	-322.1282653808594	-532.5668334960939	83.17179107666017	-240.7977142333985	-610.1889038085939	44.82698822021485	-270.4786987304688	-432.8616638183595	17.34167098999024	-267.1034851074219	-432.4888000488282	27.34616851806641	-318.8028259277344	-491.5753784179689	13.28652858734131	-354.3790893554688	-250.616683959961	779.8467407226565	-61.71029663085939	-90.43968200683595	442.102264404297	-114.0741119384766	-94.77530670166017	418.0941467285157	-242.7339477539063	-82.71020507812501	389.813446044922	-106.8633651733399	-28.31232833862305	400.8675537109376	-151.8027038574219	35.08877563476563	77.92958831787111	-128.2226867675782	63.28744506835939	104.3945999145508	-203.1415710449219	24.95774269104005	17.22234916687012	-187.9285125732422	182.3063201904297	90.81356048583986	-178.914535522461	170.8430328369141	93.0124969482422	-139.0312652587891	135.7182006835938	50.15837860107423	-95.41754150390626	-291.8972473144532	1386.748413085938	-228.8706359863282	-395.8996887207032	1150.494262695313	-255.5093536376954	-126.8341445922852	1052.339721679688	-251.8500213623047	-179.2878723144532	1303.771606445313	-237.9933166503907	-391.3161621093751	1200.051635742188	-339.2832031250001	-346.4383239746094	1326.662475585938	-342.3147583007813	-300.3985595703126	1331.424682617188	-402.1895751953126	-252.1888885498047	1342.413208007813	-414.1242980957032	-260.5231628417969	1036.72119140625	-510.6395263671876	-291.0665588378907	1019.2080078125	-440.1334228515626	-285.9805908203126	1003.156494140625	-488.8809814453126	-102.0637512207032	855.7276000976565	-481.397674560547	-163.4060821533203	823.4732055664065	-520.6591796875001	-54.1451759338379	812.798034667969	-493.8704223632814	-135.1990966796875	766.9292602539064	-521.9423217773439	-398.502166748047	1190.097778320313	-173.1780548095703	-353.7592468261719	1312.80322265625	-163.6931915283203	-303.8215026855469	1313.228759765625	-89.7205276489258	-256.9904479980469	1314.657836914063	-71.70278167724611	-316.3005371093751	1003.063659667969	3.814650297164918	-343.8521728515626	991.063659667969	-62.4883155822754	-343.1576843261719	975.920349121094	-16.34147262573243	-262.1026916503907	779.2268066406252	21.96665000915528	-314.5557556152344	789.233581542969	55.21239471435548	-248.9978790283204	698.2655029296876	38.65102767944337	-322.6496276855469	722.6920776367189	73.48394775390626	
4	0.03	-183.634033203125	880.460632324219	-383.6392517089844	-390.2930603027345	897.1859130859377	-281.5246276855469	-373.7600097656251	893.6762695312502	-180.1722869873047	-153.9115753173828	880.9830322265627	-131.6744384765625	-291.4597473144532	789.0899658203127	-430.513153076172	-368.3834533691407	424.024383544922	-367.2478942871094	-373.5129699707032	414.4548950195314	-244.3081512451172	-404.9192504882814	374.8213500976563	-372.1929321289063	-358.8235778808594	346.9071044921876	-320.3321838378907	-551.5691528320314	85.05666351318361	-323.2815551757813	-530.0136718750001	86.5563430786133	-242.0318603515626	-608.4762573242189	51.81386947631837	-271.4647216796876	-433.9426574707032	16.94708633422852	-266.9268798828126	-433.5634155273439	26.77289962768555	-318.6002807617188	-492.2019042968751	13.66478919982911	-354.3991088867188	-233.1084899902344	778.1882324218752	-61.01252365112306	-72.06884765625001	441.2636108398439	-114.2446823120117	-76.88975524902345	417.3505859375001	-242.7772674560547	-64.46956634521486	388.8581542968751	-107.1467666625977	-10.61058521270752	399.4844360351564	-152.6349029541016	49.28766250610353	76.80079650878908	-128.8378448486328	76.86816406250001	102.4987182617188	-204.3472900390626	36.95130157470704	16.9499797821045	-187.9674377441407	195.7537231445313	86.61079406738283	-181.5427703857422	184.9390258789063	89.0017547607422	-141.558822631836	149.3569793701172	47.30830001831055	-97.49196624755862	-275.5035400390626	1384.7724609375	-227.5441894531251	-379.2879333496094	1148.544189453125	-254.1744384765626	-110.1950302124024	1050.065795898438	-250.9725799560547	-162.7898712158203	1301.841430664063	-236.5887145996094	-374.9259643554688	1198.246948242188	-338.0189819335938	-329.7561035156251	1324.787841796875	-341.0743713378907	-283.5940551757813	1329.50146484375	-400.8848876953126	-235.3737335205079	1340.533325195313	-412.8001098632814	-243.1331939697266	1035.126953125	-509.8100891113282	-273.4342041015626	1017.229370117188	-439.2259826660157	-268.4837646484376	1001.355529785156	-488.0407104492189	-83.55975341796876	855.3403320312502	-481.0457458496095	-144.7549591064453	822.296569824219	-519.9297485351564	-35.18552780151368	813.1524047851565	-493.8326721191407	-115.7386016845703	765.9989013671876	-521.1939697265626	-382.0061035156251	1188.012329101563	-171.9109497070313	-337.3493347167969	1310.74951171875	-162.3543701171875	-287.4040832519532	1311.175415039063	-88.36013031005861	-240.5300292968751	1312.619873046875	-70.36642456054689	-300.1126708984376	1000.900207519531	4.830421924591065	-327.6935729980469	988.8479614257815	-61.45050430297853	-327.0573730468751	973.9566650390627	-15.43188858032227	-246.6247863769532	776.8247680664065	23.10289382934571	-299.1089172363282	787.0814208984377	56.38194274902345	-234.0182800292969	696.1163330078126	40.12075424194337	-307.5659790039063	720.6574096679689	74.66807556152345	
